<?xml version="1.0" encoding="UTF-8" standalone="no"?>
<!DOCTYPE svg PUBLIC "-//W3C//DTD SVG 1.1//EN" "http://www.w3.org/Graphics/SVG/1.1/DTD/svg11.dtd">
<svg width="100%" height="100%" viewBox="0 0 7087 7087" version="1.1" xmlns="http://www.w3.org/2000/svg" xmlns:xlink="http://www.w3.org/1999/xlink" xml:space="preserve" xmlns:serif="http://www.serif.com/" style="fill-rule:evenodd;clip-rule:evenodd;stroke-linejoin:round;stroke-miterlimit:2;">
    <g transform="matrix(1,0,0,1,130.596,-1.03728)">
        <path d="M1356.09,2397.76L1356.09,4690.93L645.282,4690.93L645.282,2808.14L1356.09,2397.76Z" style="fill-rule:nonzero;"/>
        <path d="M1356.09,4288.04L658.263,4690.93L645.282,4690.93L645.282,2808.14L1356.09,2397.76L1356.09,4288.04Z" style="fill-rule:nonzero;"/>
        <path d="M4680.27,2397.76L4695.63,2397.76L5212.29,4049.52L5721.13,2397.76L6441.33,2397.76L5589.62,4693.01L4820.88,4693.01L4083.67,2742.2L4680.27,2397.76Z" style="fill-rule:nonzero;"/>
        <g transform="matrix(1,0,0,1,1590.58,-1160.16)">
            <text x="2355.1px" y="5853.17px" style="font-family:'Arial-Black', 'Arial Black', sans-serif;font-weight:900;font-size:3206.46px;">V</text>
        </g>
        <g transform="matrix(1,0,0,1,-1228.28,-2253.51)">
            <path d="M4308.4,5332.79C4290.54,5230.29 4253.32,5155.69 4196.73,5108.97C4139.85,5062 4061.3,5038.51 3961.1,5038.51C3878.64,5038.51 3816.54,5055.99 3774.79,5090.96C3733.04,5125.93 3712.16,5168.46 3712.16,5218.56C3712.16,5255.09 3729.39,5287.97 3763.83,5317.2C3797.23,5347.47 3876.56,5375.65 4001.81,5401.74C4311.81,5468.55 4533.87,5536.13 4667.99,5604.5C4802.12,5672.86 4899.71,5757.67 4960.77,5858.91C5021.83,5960.16 5052.36,6073.41 5052.36,6198.66C5052.36,6345.83 5011.66,6481.52 4930.24,6605.73C4848.83,6729.94 4735.06,6824.14 4588.93,6888.33C4442.8,6952.52 4258.58,6984.62 4036.25,6984.62C3645.88,6984.62 3375.55,6909.47 3225.24,6759.17C3147.19,6681.11 3086.73,6592.08 3043.86,6492.06L3644.99,6145C3659.66,6254.03 3689.35,6337.16 3734.08,6394.37C3807.15,6487.26 3911.52,6533.71 4047.21,6533.71C4148.46,6533.71 4226.48,6509.97 4281.28,6462.47C4336.08,6414.98 4363.48,6359.92 4363.48,6297.3C4363.48,6237.8 4337.38,6184.57 4285.19,6137.6C4233,6090.63 4111.93,6046.27 3921.96,6004.52C3610.92,5934.59 3389.12,5841.69 3256.56,5725.83C3122.96,5609.98 3056.16,5462.28 3056.16,5282.75C3056.16,5164.81 3090.34,5053.39 3158.7,4948.49C3227.07,4843.59 3329.88,4761.13 3467.14,4701.11C3604.39,4641.1 3792.53,4611.09 4031.56,4611.09C4324.86,4611.09 4548.48,4665.63 4702.44,4774.7C4782.2,4831.21 4845.23,4905.02 4891.51,4996.13L4308.4,5332.79Z" style="fill-rule:nonzero;"/>
        </g>
    </g>
</svg>
